# xmcd CD database file generated by OrangeCD 6.3
#
# Track frame offsets:
#	150
#	18064
#	37867
#	52500
#	68287
#	88807
#	109470
#	130876
#	144582
#	166705
#
# Disc length: 2464 seconds
#
# Revision: 1
# Processed by: cddbd v1.5.2PL0 Copyright (c) Steve Scherf et al.
# Submitted via: OrangeCD 6.3
#
DISCID=6f099e0a
DTITLE=Dolly Parton,Linda Ronstadt,Emmylou Harris - Trio II
DYEAR=1999
DGENRE=
TTITLE0=Lover's return
TTITLE1=High Sierra
TTITLE2=Do I ever cross your mind
TTITLE3=After the Gold Rush
TTITLE4=The Blue Train
TTITLE5=I feel the blues movin' in
TTITLE6=You'll never be the sun
TTITLE7=He rode all the way to Texas
TTITLE8=Feels like home
TTITLE9=When we're gone,long gone
EXTD=
EXTT0=
EXTT1=
EXTT2=
EXTT3=
EXTT4=
EXTT5=
EXTT6=
EXTT7=
EXTT8=
EXTT9=
PLAYORDER=
